<svg id="Layer_1" data-name="Layer 1" xmlns="http://www.w3.org/2000/svg" viewBox="0 0 14.15 14.15"><defs><style>.cls-1{fill:#ced4da;stroke:#ced4da;stroke-width:0.3px;fill-rule:evenodd;}</style></defs><title>info_question</title><g id="Artboard-1"><path id="circle-help-question-mark-outline-stroke" class="cls-1" d="M1.15,8.07A6.93,6.93,0,1,1,8.08,15,6.92,6.92,0,0,1,1.15,8.07Zm13.25,0A6.33,6.33,0,1,0,8.08,14.4h0A6.32,6.32,0,0,0,14.4,8.07ZM7.57,10.41h.88v.92H7.57ZM6.63,5.34A1.92,1.92,0,0,1,8.1,4.76a2,2,0,0,1,1.39.5A1.72,1.72,0,0,1,10,6.53a1.36,1.36,0,0,1-.2.76A5.63,5.63,0,0,1,9,8.14a2.51,2.51,0,0,0-.55.7,2.12,2.12,0,0,0-.12.83H7.58a2.91,2.91,0,0,1,.15-1,2.76,2.76,0,0,1,.66-.89l.34-.34A1.35,1.35,0,0,0,9,7.11a1.1,1.1,0,0,0,.17-.59,1.13,1.13,0,0,0-.25-.75,1.27,1.27,0,0,0-1.78.1L7,6a2.22,2.22,0,0,0-.17.88H6.08a2.18,2.18,0,0,1,.53-1.54Z" transform="translate(-1 -1)"/></g></svg>